<?xml version="1.0" encoding="utf-8"?>
<!-- Generator: Adobe Illustrator 17.0.0, SVG Export Plug-In . SVG Version: 6.00 Build 0)  -->
<!DOCTYPE svg PUBLIC "-//W3C//DTD SVG 1.1//EN" "http://www.w3.org/Graphics/SVG/1.1/DTD/svg11.dtd">
<svg version="1.1" id="katman_1" xmlns="http://www.w3.org/2000/svg" xmlns:xlink="http://www.w3.org/1999/xlink" x="0px" y="0px"
	 width="200px" height="200px" viewBox="-7 0 200 200" enable-background="new -7 0 200 200" xml:space="preserve">
<g transform="translate(0.000000,140.000000) scale(0.100000,-0.100000)">
	<path fill="#FFCC33" d="M641,966c-87-48-50-186,49-186c51,0,100,49,100,99C790,954,707,1003,641,966z"/>
	<path fill="#FFCC33" d="M1121,966c-87-48-50-186,49-186c51,0,100,49,100,99C1270,954,1187,1003,1121,966z"/>
	<path fill="#FFCC33" d="M1010,553c-129-40-265-82-302-93c-64-20-84-39-58-55c5-3,145,36,310,87c238,74,300,96,300,110
		c0,9-3,19-7,21C1248,625,1139,594,1010,553z"/>
</g>
<g>
	<g>
		<path fill="#222222" d="M78.324,170.924c0.928,0.313,1.856,0.549,2.811,0.811c2.476,0.68,5.053,1.097,7.322,2.431
			c0.773,0.471,1.469,1.02,1.651,1.881c0.103-0.027,0.207-0.027,0.335-0.027h3.172c0.955,0,1.701-0.027,2.192,0.392
			c0-0.104,0.025-0.209,0.025-0.313c0.025-2.275-0.541-3.816-1.856-5.228c-1.109-0.705-1.496-0.993-2.088-1.647
			c0,0-0.18-0.261-0.387-0.34c-2.011-0.889-4.125-1.307-6.214-1.908c-1.676-0.496-3.454-0.732-4.95-1.725
			c-1.444-0.967-1.651-2.719-0.489-4.025c0.644-0.705,1.444-1.097,2.399-1.203c2.836-0.34,5.441-0.157,6.962,2.849
			c0.232,0.444,0.232,0.444,0.232,0.444c-0.644-2.719,0.18-4.784,2.217-6.169c-0.671-0.601-1.032-0.732-1.985-1.124
			c-3.274-1.333-6.652-1.255-10.03-0.392c-4.332,1.124-6.472,4.26-6.214,8.755C73.656,167.683,75.229,169.852,78.324,170.924z"/>
		<path fill="#222222" d="M88.946,178.321c-0.387,1.072-1.651,1.385-1.651,1.385c-2.631,0.601-3.326,0.653-5.544-0.288
			c-1.135-0.471-2.321-1.124-2.527-2.379c-0.284-1.751-1.187-1.673-2.631-1.673h-2.94c-0.567,0-0.696,0.157-0.644,0.705
			c0.412,3.816,2.243,6.586,5.878,7.946c2.965,1.097,6.06,1.072,9.127,0.575c1.728-0.288,2.449-0.444,3.609-1.228
			C90.028,182.319,88.895,180.83,88.946,178.321z"/>
	</g>
	<path fill="#222222" d="M92.633,173.355c1.444,0,0.773,0.575,3.197,2.013c0.232,3.11,1.933,3.737,3.094,4.156
		c2.011,0.732,4.074,0.784,6.11,0.131c1.315-0.419,2.14-1.333,2.269-2.771c0.103-1.333-0.721-2.039-1.701-2.613
		c-2.269-1.333-4.821-1.751-7.322-2.431c-0.928-0.261-1.883-0.496-2.811-0.811c-3.094-1.097-4.666-3.241-4.873-6.561
		c-0.284-4.521,1.883-7.632,6.214-8.755c3.352-0.863,6.756-0.941,10.03,0.392c3.249,1.333,4.77,3.973,5.13,7.397
		c0.052,0.471,0.025,0.68-0.567,0.68c-0.98,0-2.14-0.027-2.836-0.027c-0.928,0-1.805-0.365-2.217-1.228
		c-1.521-3.005-4.125-3.189-6.962-2.849c-0.955,0.104-1.753,0.496-2.399,1.203c-1.16,1.307-0.955,3.058,0.489,4.025
		c1.496,1.02,3.274,1.228,4.95,1.725c2.088,0.627,4.202,1.02,6.214,1.908c2.99,1.333,4.564,3.921,4.332,7.24
		c-0.335,4.678-4.28,7.946-7.761,8.494c-3.068,0.496-6.162,0.523-9.127-0.575c-3.636-1.333-5.569-4.077-5.982-7.893
		c-0.18-1.881,0.18-0.759,0.748-0.759L92.633,173.355z"/>
</g>
</svg>
