<?xml version="1.0" encoding="utf-8"?>
<!-- Generator: Adobe Illustrator 17.0.0, SVG Export Plug-In . SVG Version: 6.00 Build 0)  -->
<!DOCTYPE svg PUBLIC "-//W3C//DTD SVG 1.1//EN" "http://www.w3.org/Graphics/SVG/1.1/DTD/svg11.dtd">
<svg version="1.1" id="katman_1" xmlns="http://www.w3.org/2000/svg" xmlns:xlink="http://www.w3.org/1999/xlink" x="0px" y="0px"
	 width="50px" height="50px" viewBox="0 0 50 50" enable-background="new 0 0 50 50" xml:space="preserve">
<rect fill="#FECB37" width="50" height="50"/>
<g>
	<g>
		<path fill="#111111" d="M13.992,25.692c0.696,0.235,1.392,0.412,2.108,0.608c1.857,0.51,3.79,0.823,5.492,1.823
			c0.58,0.353,1.102,0.765,1.238,1.411c0.077-0.02,0.155-0.02,0.251-0.02h2.379c0.716,0,1.276-0.02,1.644,0.294
			c0-0.078,0.019-0.157,0.019-0.235c0.019-1.706-0.406-2.862-1.392-3.921c-0.832-0.529-1.122-0.745-1.566-1.235
			c0,0-0.135-0.196-0.29-0.255c-1.508-0.667-3.094-0.98-4.661-1.431c-1.257-0.372-2.591-0.549-3.713-1.294
			c-1.083-0.725-1.238-2.039-0.367-3.019c0.483-0.529,1.083-0.823,1.799-0.902c2.127-0.255,4.081-0.118,5.222,2.137
			c0.174,0.333,0.174,0.333,0.174,0.333c-0.483-2.039,0.135-3.588,1.663-4.627c-0.503-0.451-0.774-0.549-1.489-0.843
			c-2.456-1-4.989-0.941-7.523-0.294c-3.249,0.843-4.854,3.195-4.661,6.567C10.491,23.261,11.671,24.888,13.992,25.692z"/>
		<path fill="#111111" d="M21.959,31.24c-0.29,0.804-1.238,1.039-1.238,1.039c-1.973,0.451-2.495,0.49-4.158-0.216
			c-0.851-0.353-1.741-0.843-1.895-1.784c-0.213-1.313-0.89-1.255-1.973-1.255h-2.205c-0.425,0-0.522,0.118-0.483,0.529
			c0.309,2.862,1.682,4.94,4.409,5.96c2.224,0.823,4.545,0.804,6.846,0.431c1.296-0.216,1.837-0.333,2.707-0.921
			C22.771,34.239,21.921,33.122,21.959,31.24z"/>
	</g>
	<path fill="#111111" d="M24.725,27.515c1.083,0,0.58,0.431,2.398,1.51c0.174,2.333,1.45,2.803,2.321,3.117
		c1.508,0.549,3.056,0.588,4.583,0.098c0.986-0.314,1.605-1,1.702-2.078c0.077-1-0.541-1.529-1.276-1.96
		c-1.702-1-3.616-1.313-5.492-1.823c-0.696-0.196-1.412-0.372-2.108-0.608c-2.321-0.823-3.5-2.431-3.655-4.921
		c-0.213-3.391,1.412-5.724,4.661-6.567c2.514-0.647,5.067-0.706,7.523,0.294c2.437,1,3.578,2.98,3.848,5.548
		c0.039,0.353,0.019,0.51-0.425,0.51c-0.735,0-1.605-0.02-2.127-0.02c-0.696,0-1.354-0.274-1.663-0.921
		c-1.141-2.254-3.094-2.392-5.222-2.137c-0.716,0.078-1.315,0.372-1.799,0.902c-0.87,0.98-0.716,2.294,0.367,3.019
		c1.122,0.765,2.456,0.921,3.713,1.294c1.566,0.47,3.152,0.765,4.661,1.431c2.243,1,3.423,2.941,3.249,5.43
		c-0.251,3.509-3.21,5.96-5.821,6.371c-2.301,0.372-4.622,0.392-6.846-0.431c-2.727-1-4.177-3.058-4.487-5.92
		c-0.135-1.411,0.135-0.569,0.561-0.569L24.725,27.515z"/>
</g>
</svg>
