<?xml version="1.0" encoding="utf-8"?>
<!-- Generator: Adobe Illustrator 17.0.0, SVG Export Plug-In . SVG Version: 6.00 Build 0)  -->
<!DOCTYPE svg PUBLIC "-//W3C//DTD SVG 1.1//EN" "http://www.w3.org/Graphics/SVG/1.1/DTD/svg11.dtd">
<svg version="1.1" id="katman_1" xmlns="http://www.w3.org/2000/svg" xmlns:xlink="http://www.w3.org/1999/xlink" x="0px" y="0px"
	 width="64px" height="1359px" viewBox="0 0 64 1359" enable-background="new 0 0 64 1359" xml:space="preserve">
<path fill="#959595" d="M23.46,15.037L9.54,8.133C9.37,8.05,9.195,8,8.995,8c-0.545,0-0.99,0.375-0.99,0.833H8v14.333h0.005
	C8.005,23.625,8.45,24,8.995,24c0.205,0,0.375-0.058,0.56-0.142l13.905-6.896C23.79,16.733,24,16.387,24,16
	S23.79,15.271,23.46,15.037z"/>
<path fill="#D5D5D5" d="M55.46,15.037L41.54,8.133C41.37,8.05,41.195,8,40.995,8c-0.545,0-0.99,0.375-0.99,0.833H40v14.333h0.005
	c0,0.458,0.445,0.833,0.99,0.833c0.205,0,0.375-0.058,0.56-0.142l13.905-6.896C55.79,16.733,56,16.387,56,16
	S55.79,15.271,55.46,15.037z"/>
<g>
	<path fill="#959595" d="M11.75,55.492V40.504c0-0.279-0.211-0.504-0.477-0.504H8.476C8.211,40,8,40.225,8,40.504v14.987
		C8,55.771,8.211,56,8.477,56h2.797C11.539,56,11.75,55.775,11.75,55.492z"/>
	<path fill="#959595" d="M17.523,40h-2.797c-0.262,0-0.477,0.225-0.477,0.504v14.987c0,0.279,0.211,0.508,0.477,0.508h2.797
		C17.785,56,18,55.775,18,55.492V40.504C18,40.225,17.789,40,17.523,40z"/>
</g>
<g>
	<path fill="#D5D5D5" d="M43.75,55.492V40.504c0-0.279-0.211-0.504-0.477-0.504h-2.797C40.211,40,40,40.225,40,40.504v14.987
		C40,55.771,40.211,56,40.477,56h2.797C43.539,56,43.75,55.775,43.75,55.492z"/>
	<path fill="#D5D5D5" d="M49.523,40h-2.797c-0.262,0-0.477,0.225-0.477,0.504v14.987c0,0.279,0.211,0.508,0.477,0.508h2.797
		C49.785,56,50,55.775,50,55.492V40.504C50,40.225,49.789,40,49.523,40z"/>
</g>
<path fill="#959595" d="M23.714,84.5L28,79.255h-2.888c-0.103-1.308-0.469-2.531-1.049-3.623c-1.223-2.306-3.384-3.989-5.938-4.481
	c-0.031-0.005-0.067-0.014-0.098-0.019c-0.022-0.005-0.04-0.009-0.063-0.009C17.513,71.042,17.045,71,16.571,71
	c-0.004,0-0.013,0-0.018,0l0,0c-4.058,0.009-7.455,2.981-8.335,6.966v0.005c-0.013,0.052-0.022,0.103-0.031,0.155
	c-0.004,0.023-0.009,0.042-0.013,0.066c-0.004,0.033-0.013,0.066-0.018,0.098c-0.009,0.042-0.013,0.08-0.022,0.122
	c-0.004,0.019-0.004,0.033-0.009,0.052c-0.009,0.056-0.018,0.112-0.027,0.169c0,0.005,0,0.005,0,0.009
	c-0.045,0.295-0.071,0.595-0.085,0.895c0,0.014,0,0.028,0,0.037c-0.004,0.066-0.004,0.127-0.009,0.192C8.004,79.841,8,79.92,8,80
	s0,0.155,0.004,0.234c0,0.066,0.004,0.127,0.009,0.192c0,0.014,0,0.028,0,0.042c0.013,0.305,0.045,0.605,0.085,0.895
	c0,0.005,0,0.005,0,0.009c0.009,0.056,0.018,0.113,0.027,0.169c0.004,0.019,0.004,0.033,0.009,0.052
	c0.009,0.042,0.013,0.084,0.022,0.122c0.004,0.033,0.013,0.066,0.018,0.098c0.004,0.023,0.009,0.047,0.013,0.066
	c0.009,0.052,0.022,0.103,0.031,0.15v0.005c0.879,3.984,4.29,6.956,8.353,6.966c1.915-0.005,3.71-0.666,5.219-1.908l0.335-0.277
	l-1.929-2.166l-0.277,0.216C18.933,85.63,17.799,86,16.571,86c-3.152,0-5.714-2.672-5.714-6s2.563-6,5.714-6
	c2.964,0,5.482,2.184,5.781,5.25h-3.281L23.714,84.5z"/>
<path fill="#D5D5D5" d="M55.714,84.5L60,79.255h-2.888c-0.103-1.308-0.469-2.531-1.049-3.623c-1.223-2.306-3.384-3.989-5.938-4.481
	c-0.031-0.005-0.067-0.014-0.098-0.019c-0.022-0.005-0.04-0.009-0.063-0.009C49.513,71.042,49.045,71,48.571,71
	c-0.004,0-0.013,0-0.018,0l0,0c-4.058,0.009-7.455,2.981-8.335,6.966v0.005c-0.013,0.052-0.022,0.103-0.031,0.155
	c-0.004,0.023-0.009,0.042-0.013,0.066c-0.004,0.033-0.013,0.066-0.018,0.098c-0.009,0.042-0.013,0.08-0.022,0.122
	c-0.004,0.019-0.004,0.033-0.009,0.052c-0.009,0.056-0.018,0.112-0.027,0.169c0,0.005,0,0.005,0,0.009
	c-0.045,0.295-0.071,0.595-0.085,0.895c0,0.014,0,0.028,0,0.037c-0.004,0.066-0.004,0.127-0.009,0.192C40.004,79.841,40,79.92,40,80
	s0,0.155,0.004,0.234c0,0.066,0.004,0.127,0.009,0.192c0,0.014,0,0.028,0,0.042c0.013,0.305,0.045,0.605,0.085,0.895
	c0,0.005,0,0.005,0,0.009c0.009,0.056,0.018,0.113,0.027,0.169c0.004,0.019,0.004,0.033,0.009,0.052
	c0.009,0.042,0.013,0.084,0.022,0.122c0.004,0.033,0.013,0.066,0.018,0.098c0.004,0.023,0.009,0.047,0.013,0.066
	c0.009,0.052,0.022,0.103,0.031,0.15v0.005c0.879,3.984,4.29,6.956,8.353,6.966c1.915-0.005,3.71-0.666,5.219-1.908l0.335-0.277
	l-1.929-2.166l-0.277,0.216C50.933,85.63,49.799,86,48.571,86c-3.152,0-5.714-2.672-5.714-6s2.563-6,5.714-6
	c2.964,0,5.482,2.184,5.781,5.25h-3.281L55.714,84.5z"/>
<path fill="#959595" d="M8,109.333v5.333h3.556L16,119.314v-14.629l-4.444,4.648C11.556,109.333,8,109.333,8,109.333z M20,112
	c0-1.6-0.889-3.017-2.222-3.703v7.36C19.111,115.017,20,113.6,20,112z M17.778,104v1.874c2.578,0.777,4.444,3.246,4.444,6.126
	s-1.867,5.349-4.444,6.126V120c3.556-0.823,6.222-4.114,6.222-8S21.333,104.823,17.778,104z"/>
<path fill="#D5D5D5" d="M40,109.333v5.333h3.556L48,119.314v-14.629l-4.444,4.648C43.556,109.333,40,109.333,40,109.333z M52,112
	c0-1.6-0.889-3.017-2.222-3.703v7.36C51.111,115.017,52,113.6,52,112z M49.778,104v1.874c2.578,0.777,4.444,3.246,4.444,6.126
	s-1.867,5.349-4.444,6.126V120c3.556-0.823,6.222-4.114,6.222-8S53.333,104.823,49.778,104z"/>
<path fill="#959595" d="M8,141.083v5.833h3.556L16,152v-16l-4.444,5.083L8,141.083L8,141.083z M20,144c0-1.75-0.889-3.3-2.222-4.05
	V148C19.111,147.3,20,145.75,20,144z"/>
<path fill="#D5D5D5" d="M40,141.083v5.833h3.556L48,152v-16l-4.444,5.083L40,141.083L40,141.083z M52,144
	c0-1.75-0.889-3.3-2.222-4.05V148C51.111,147.3,52,145.75,52,144z"/>
<path fill="#959595" d="M8,173.083v5.833h3.556L16,184v-16l-4.444,5.083L8,173.083L8,173.083z"/>
<path fill="#D5D5D5" d="M40,173.083v5.833h3.556L48,184v-16l-4.444,5.083L40,173.083L40,173.083z"/>
<g>
	<path fill="#959595" d="M22.229,208c0,0.947-0.203,1.848-0.567,2.661l1.328,1.328C23.637,210.805,24,209.444,24,208
		c0-3.886-2.667-7.177-6.208-8v1.874C20.375,202.651,22.229,205.12,22.229,208z"/>
	<polygon fill="#959595" points="16,200.686 13.874,202.872 16,204.998 	"/>
	<path fill="#959595" d="M22.868,213.87L9.13,200.132l-1,1l3.771,3.767l-0.345,0.435H8v5.333h3.556L16,215.314V209l3.955,3.945
		c-0.63,0.532-1.371,0.939-2.163,1.181V216c1.292-0.299,2.458-0.923,3.43-1.784l1.65,1.654l1-1.002l-1-1.002L22.868,213.87z"/>
	<path fill="#959595" d="M20.008,208c0-1.6-0.883-3.017-2.216-3.703v2.492l2.117,2.117C19.973,208.614,20.008,208.311,20.008,208z"
		/>
</g>
<g>
	<path fill="#D5D5D5" d="M54.229,208c0,0.947-0.203,1.848-0.567,2.661l1.328,1.328C55.637,210.805,56,209.444,56,208
		c0-3.886-2.667-7.177-6.208-8v1.874C52.375,202.651,54.229,205.12,54.229,208z"/>
	<polygon fill="#D5D5D5" points="48,200.686 45.874,202.872 48,204.998 	"/>
	<path fill="#D5D5D5" d="M54.868,213.87L41.13,200.132l-1,1l3.771,3.767l-0.345,0.435H40v5.333h3.556L48,215.314V209l3.955,3.945
		c-0.63,0.532-1.371,0.939-2.163,1.181V216c1.292-0.299,2.458-0.923,3.43-1.784l1.65,1.654l1-1.002l-1-1.002L54.868,213.87z"/>
	<path fill="#D5D5D5" d="M52.008,208c0-1.6-0.883-3.017-2.216-3.703v2.492l2.117,2.117C51.973,208.614,52.008,208.311,52.008,208z"
		/>
</g>
<g>
	<polygon fill="#959595" points="21.866,245.867 18.667,245.867 18.667,248 24,248 24,242.667 21.866,242.667 	"/>
	<polygon fill="#959595" points="21.867,234.134 21.867,237.333 24,237.333 24,232 18.667,232 18.667,234.134 	"/>
	<polygon fill="#959595" points="10.134,234.133 13.333,234.133 13.333,232 8,232 8,237.333 10.134,237.333 	"/>
	<polygon fill="#959595" points="10.133,245.866 10.133,242.667 8,242.667 8,248 13.333,248 13.333,245.866 	"/>
</g>
<g>
	<polygon fill="#D5D5D5" points="53.866,245.867 50.667,245.867 50.667,248 56,248 56,242.667 53.866,242.667 	"/>
	<polygon fill="#D5D5D5" points="53.867,234.134 53.867,237.333 56,237.333 56,232 50.667,232 50.667,234.134 	"/>
	<polygon fill="#D5D5D5" points="42.134,234.133 45.333,234.133 45.333,232 40,232 40,237.333 42.134,237.333 	"/>
	<polygon fill="#D5D5D5" points="42.133,245.866 42.133,242.667 40,242.667 40,248 45.333,248 45.333,245.866 	"/>
</g>
<g id="Icon_2_">
	<g>
		<path fill="#959595" d="M8,276.8h3.2v3.2h2.134v-5.333H8V276.8z M11.2,267.2H8v2.133h5.333V264H11.2V267.2z M18.667,280H20.8v-3.2
			H24v-2.133h-5.333V280z M20.8,267.2V264h-2.133v5.333H24V267.2H20.8z"/>
	</g>
</g>
<g id="Icon_1_">
	<g>
		<path fill="#D5D5D5" d="M40,276.8h3.2v3.2h2.134v-5.333H40V276.8z M43.2,267.2H40v2.133h5.333V264H43.2V267.2z M50.667,280H52.8
			v-3.2H56v-2.133h-5.333V280z M52.8,267.2V264h-2.133v5.333H56V267.2H52.8z"/>
	</g>
</g>
<path fill="#959595" d="M16.003,344c0.385,0,0.691-0.314,0.691-0.704v-2.1c0.069-0.211,0.212-0.382,0.417-0.454
	c0.042-0.014,0.087-0.029,0.135-0.032c2.156-0.557,3.753-2.521,3.753-4.864v-0.486c0-0.371-0.309-0.675-0.677-0.675
	s-0.677,0.3-0.677,0.675v0.486c0,1.018-0.399,1.932-1.063,2.6c-0.667,0.664-1.573,1.079-2.587,1.079s-1.913-0.411-2.576-1.079
	s-1.066-1.586-1.066-2.6v-0.486c0-0.371-0.306-0.675-0.677-0.675c-0.368,0-0.674,0.304-0.674,0.675L11,335.846
	c0.003,2.343,1.597,4.307,3.753,4.864c0.045,0.004,0.09,0.018,0.132,0.032c0.205,0.071,0.351,0.246,0.42,0.457v2.096
	c0,0.389,0.309,0.704,0.694,0.704"/>
<path fill="#959595" d="M16.017,328c-1.486,0-2.691,1.211-2.691,2.704v5.136c0,1.493,1.205,2.704,2.691,2.704
	s2.691-1.211,2.691-2.704v-5.136C18.708,329.211,17.503,328,16.017,328"/>
<path fill="#D5D5D5" d="M48.003,344c0.385,0,0.691-0.314,0.691-0.704v-2.1c0.069-0.211,0.212-0.382,0.417-0.454
	c0.042-0.014,0.087-0.029,0.135-0.032c2.156-0.557,3.753-2.521,3.753-4.864v-0.486c0-0.371-0.309-0.675-0.677-0.675
	s-0.677,0.3-0.677,0.675v0.486c0,1.018-0.399,1.932-1.063,2.6c-0.667,0.664-1.573,1.079-2.587,1.079s-1.913-0.411-2.576-1.079
	c-0.663-0.668-1.066-1.586-1.066-2.6v-0.486c0-0.371-0.306-0.675-0.677-0.675c-0.368,0-0.674,0.304-0.674,0.675L43,335.846
	c0.003,2.343,1.597,4.307,3.753,4.864c0.045,0.004,0.09,0.018,0.132,0.032c0.205,0.071,0.351,0.246,0.42,0.457v2.096
	c0,0.389,0.309,0.704,0.694,0.704"/>
<path fill="#D5D5D5" d="M48.017,328c-1.486,0-2.691,1.211-2.691,2.704v5.136c0,1.493,1.205,2.704,2.691,2.704
	s2.691-1.211,2.691-2.704v-5.136C50.708,329.211,49.503,328,48.017,328"/>
<g>
	<ellipse fill="#959595" cx="16" cy="304" rx="2.857" ry="3"/>
	<g>
		<path fill="#959595" d="M11,304c0-1.73,0.828-3.244,2.068-4.08l-1.033-1.149c-0.279,0.216-0.544,0.461-0.789,0.734
			c-1.079,1.201-1.674,2.797-1.674,4.495s0.594,3.294,1.674,4.495c0.246,0.273,0.51,0.518,0.789,0.734l1.033-1.149
			C11.828,307.244,11,305.73,11,304z"/>
		<path fill="#959595" d="M21,304c0,1.73-0.828,3.244-2.068,4.08l1.033,1.149c0.279-0.216,0.544-0.461,0.789-0.734
			c1.079-1.201,1.674-2.797,1.674-4.495s-0.594-3.294-1.674-4.494c-0.246-0.273-0.51-0.518-0.789-0.734l-1.033,1.149
			C20.172,300.756,21,302.27,21,304z"/>
		<path fill="#959595" d="M7.429,304c0-2.605,1.127-4.917,2.869-6.366l-1.02-1.134c-0.268,0.234-0.524,0.487-0.768,0.758
			c-0.787,0.875-1.405,1.895-1.836,3.03C6.227,301.465,6,302.714,6,304s0.227,2.535,0.674,3.712c0.432,1.136,1.05,2.155,1.836,3.03
			c0.244,0.271,0.5,0.524,0.768,0.758l1.019-1.134C8.556,308.917,7.429,306.605,7.429,304z"/>
		<path fill="#959595" d="M24.571,304c0,2.605-1.127,4.918-2.869,6.366l1.019,1.118c0.268-0.234,0.524-0.472,0.768-0.743
			c0.787-0.875,1.405-1.895,1.836-3.03C25.773,306.535,26,305.286,26,304s-0.227-2.535-0.674-3.712
			c-0.432-1.136-1.05-2.155-1.836-3.03c-0.244-0.271-0.5-0.524-0.768-0.758l-1.019,1.134C23.444,299.082,24.571,301.395,24.571,304z
			"/>
	</g>
</g>
<g>
	<ellipse fill="#D5D5D5" cx="48" cy="304" rx="2.857" ry="3"/>
	<g>
		<path fill="#D5D5D5" d="M43,304c0-1.73,0.828-3.244,2.068-4.08l-1.033-1.149c-0.279,0.216-0.544,0.461-0.789,0.734
			c-1.079,1.201-1.674,2.797-1.674,4.495s0.594,3.294,1.674,4.495c0.246,0.273,0.51,0.518,0.789,0.734l1.033-1.149
			C43.828,307.244,43,305.73,43,304z"/>
		<path fill="#D5D5D5" d="M53,304c0,1.73-0.828,3.244-2.068,4.08l1.033,1.149c0.279-0.216,0.544-0.461,0.789-0.734
			c1.079-1.201,1.674-2.797,1.674-4.495s-0.594-3.294-1.674-4.494c-0.246-0.273-0.51-0.518-0.789-0.734l-1.033,1.149
			C52.172,300.756,53,302.27,53,304z"/>
		<path fill="#D5D5D5" d="M39.429,304c0-2.605,1.127-4.917,2.869-6.366l-1.019-1.134c-0.268,0.234-0.524,0.487-0.768,0.758
			c-0.787,0.875-1.405,1.895-1.836,3.03C38.227,301.465,38,302.714,38,304s0.227,2.535,0.674,3.712
			c0.432,1.136,1.05,2.155,1.836,3.03c0.244,0.271,0.5,0.524,0.768,0.758l1.019-1.134C40.556,308.917,39.429,306.605,39.429,304z"/>
		<path fill="#D5D5D5" d="M56.571,304c0,2.605-1.127,4.918-2.869,6.366l1.019,1.118c0.268-0.234,0.524-0.472,0.768-0.743
			c0.787-0.875,1.405-1.895,1.836-3.03C57.773,306.535,58,305.286,58,304s-0.227-2.535-0.674-3.712
			c-0.432-1.136-1.05-2.155-1.836-3.03c-0.244-0.271-0.5-0.524-0.768-0.758l-1.019,1.134C55.444,299.082,56.571,301.395,56.571,304z
			"/>
	</g>
</g>
<g>
	<path fill="#959595" d="M22.076,368.8c0.041-0.24,0.041-0.52,0.041-0.8s-0.041-0.52-0.041-0.8l1.718-1.32
		c0.164-0.12,0.205-0.32,0.082-0.52l-1.636-2.76c-0.082-0.16-0.327-0.24-0.491-0.16l-2.046,0.8c-0.409-0.32-0.9-0.6-1.391-0.8
		l-0.286-2.12c-0.041-0.16-0.205-0.32-0.409-0.32h-3.273c-0.205,0-0.368,0.16-0.409,0.32l-0.327,2.12
		c-0.491,0.2-0.941,0.48-1.391,0.8l-2.046-0.8c-0.205-0.08-0.409,0-0.491,0.16l-1.636,2.76c-0.081,0.16-0.041,0.4,0.082,0.52
		l1.759,1.32c0,0.28-0.041,0.52-0.041,0.8s0.041,0.52,0.041,0.8l-1.718,1.32c-0.164,0.12-0.205,0.32-0.082,0.52l1.636,2.76
		c0.082,0.16,0.327,0.24,0.491,0.16l2.046-0.8c0.409,0.32,0.9,0.6,1.391,0.8l0.327,2.12c0.041,0.2,0.205,0.32,0.409,0.32h3.273
		c0.205,0,0.368-0.16,0.409-0.32l0.328-2.12c0.491-0.2,0.941-0.48,1.391-0.8l2.046,0.8c0.205,0.08,0.409,0,0.491-0.16l1.636-2.76
		c0.082-0.16,0.041-0.4-0.082-0.52L22.076,368.8z M15.98,370.8c-1.596,0-2.864-1.24-2.864-2.8s1.268-2.8,2.864-2.8
		s2.864,1.24,2.864,2.8S17.575,370.8,15.98,370.8z"/>
</g>
<g>
	<path fill="#D5D5D5" d="M54.076,368.8c0.041-0.24,0.041-0.52,0.041-0.8s-0.041-0.52-0.041-0.8l1.718-1.32
		c0.164-0.12,0.205-0.32,0.082-0.52l-1.636-2.76c-0.082-0.16-0.327-0.24-0.491-0.16l-2.046,0.8c-0.409-0.32-0.9-0.6-1.391-0.8
		l-0.286-2.12c-0.041-0.16-0.205-0.32-0.409-0.32h-3.273c-0.205,0-0.368,0.16-0.409,0.32l-0.327,2.12
		c-0.491,0.2-0.941,0.48-1.391,0.8l-2.046-0.8c-0.205-0.08-0.409,0-0.491,0.16l-1.636,2.76c-0.081,0.16-0.041,0.4,0.082,0.52
		l1.759,1.32c0,0.28-0.041,0.52-0.041,0.8s0.041,0.52,0.041,0.8l-1.718,1.32c-0.164,0.12-0.205,0.32-0.082,0.52l1.636,2.76
		c0.082,0.16,0.327,0.24,0.491,0.16l2.046-0.8c0.409,0.32,0.9,0.6,1.391,0.8l0.327,2.12c0.041,0.2,0.205,0.32,0.409,0.32h3.273
		c0.205,0,0.368-0.16,0.409-0.32l0.328-2.12c0.491-0.2,0.941-0.48,1.391-0.8l2.046,0.8c0.205,0.08,0.409,0,0.491-0.16l1.636-2.76
		c0.082-0.16,0.041-0.4-0.082-0.52L54.076,368.8z M47.98,370.8c-1.596,0-2.864-1.24-2.864-2.8s1.268-2.8,2.864-2.8
		s2.864,1.24,2.864,2.8S49.575,370.8,47.98,370.8z"/>
</g>
<g id="Icon_3_">
	<g>
		<path fill="#959595" d="M8,405h16v-1.667H8V405z M8,400.833h16v-1.667H8V400.833z M8,395v1.667h16V395H8z"/>
	</g>
</g>
<g id="Icon_4_">
	<g>
		<path fill="#D5D5D5" d="M40,405h16v-1.667H40V405z M40,400.833h16v-1.667H40V400.833z M40,395v1.667h16V395H40z"/>
	</g>
</g>
<path fill="#959595" d="M35.333,537.333v-3.969c0-1.792,0.396-2.698,3.177-2.698H42V524h-5.823c-7.135,0-9.49,3.271-9.49,8.885
	v4.448H22V544h4.688v20h8.646v-20h5.875L42,537.333H35.333z"/>
<path fill="#E5E5E5" d="M35.333,601.333v-3.969c0-1.792,0.396-2.698,3.177-2.698H42V588h-5.823c-7.135,0-9.49,3.271-9.49,8.885
	v4.448H22V608h4.688v20h8.646v-20h5.875L42,601.333H35.333z"/>
<path fill="#959595" d="M52,659.792c-1.475,0.642-3.051,1.075-4.713,1.275c1.695-1,3.001-2.583,3.611-4.467
	c-1.585,0.925-3.34,1.6-5.213,1.958c-1.5-1.575-3.636-2.558-5.993-2.558c-4.535,0-8.205,3.617-8.205,8.075
	c0,0.633,0.068,1.25,0.212,1.842c-6.823-0.333-12.876-3.55-16.919-8.442c-0.704,1.192-1.11,2.583-1.11,4.058
	c0,2.8,1.458,5.275,3.662,6.725c-1.356-0.033-2.628-0.4-3.73-1.008c0,0.033,0,0.067,0,0.1c0,3.917,2.831,7.175,6.586,7.917
	c-0.687,0.183-1.416,0.283-2.161,0.283c-0.526,0-1.043-0.05-1.543-0.15c1.043,3.208,4.077,5.542,7.671,5.608
	c-2.806,2.167-6.349,3.458-10.197,3.458c-0.661,0-1.314-0.042-1.958-0.117c3.619,2.317,7.934,3.65,12.562,3.65
	c15.113,0,23.369-12.308,23.369-22.983c0-0.35-0.008-0.7-0.025-1.042C49.508,662.833,50.898,661.417,52,659.792z"/>
<path fill="#E5E5E5" d="M52,723.792c-1.475,0.642-3.051,1.075-4.713,1.275c1.695-1,3.001-2.583,3.611-4.467
	c-1.585,0.925-3.34,1.6-5.213,1.958c-1.5-1.575-3.636-2.558-5.993-2.558c-4.535,0-8.205,3.617-8.205,8.075
	c0,0.633,0.068,1.25,0.212,1.842c-6.823-0.333-12.876-3.55-16.919-8.442c-0.704,1.192-1.11,2.583-1.11,4.058
	c0,2.8,1.458,5.275,3.662,6.725c-1.356-0.033-2.628-0.4-3.73-1.008c0,0.033,0,0.067,0,0.1c0,3.917,2.831,7.175,6.586,7.917
	c-0.687,0.183-1.416,0.283-2.161,0.283c-0.526,0-1.043-0.05-1.543-0.15c1.043,3.208,4.077,5.542,7.671,5.608
	c-2.806,2.167-6.349,3.458-10.197,3.458c-0.661,0-1.314-0.042-1.958-0.117c3.619,2.317,7.934,3.65,12.562,3.65
	c15.113,0,23.369-12.308,23.369-22.983c0-0.35-0.008-0.7-0.025-1.042C49.508,726.833,50.898,725.417,52,723.792z"/>
<g>
	<path fill="#959595" d="M37.88,802.031l-1.894-1.422l-0.007-0.005c-0.607-0.477-1.036-0.866-1.036-1.529
		c0-0.727,0.526-1.231,1.135-1.816l0.049-0.047c2.085-1.58,4.658-3.57,4.658-7.764c0-2.805-1.241-4.658-2.424-6.012h1.351
		l6.28-3.436H32.094c-2.637,0-6.527,0.336-9.847,2.976l-0.013,0.026c-2.271,1.886-3.627,4.643-3.627,7.362
		c0,2.207,0.907,4.39,2.487,5.982c2.231,2.247,5.03,2.721,6.985,2.721c0.152,0,0.308-0.003,0.465-0.01
		c-0.079,0.309-0.13,0.658-0.13,1.075c0,1.138,0.378,2.01,0.842,2.728c-2.495,0.201-6.055,0.674-8.841,2.32
		c-4.096,2.35-4.415,5.819-4.415,6.826c0,3.979,3.718,7.994,12.026,7.994c9.54,0,14.532-5.185,14.532-10.307
		C42.557,805.823,40.179,803.895,37.88,802.031z M24.823,787.904c0-1.391,0.314-2.443,0.964-3.218
		c0.678-0.818,1.893-1.367,3.023-1.367c2.07,0,3.43,1.563,4.206,2.874c0.958,1.618,1.553,3.759,1.553,5.586
		c0,0.515,0,2.081-1.061,3.103c-0.724,0.696-1.948,1.182-2.977,1.182c-2.135,0-3.484-1.531-4.239-2.816
		C25.209,791.406,24.823,789.28,24.823,787.904z M37.436,811.655c0,2.858-2.626,4.633-6.852,4.633c-5.005,0-8.367-2.146-8.367-5.339
		c0-2.722,2.243-3.831,3.936-4.428c1.973-0.631,4.613-0.761,5.213-0.761c0.407,0,0.634,0,0.904,0.024
		C36.092,808.411,37.436,809.548,37.436,811.655z"/>
</g>
<g>
	<path fill="#E5E5E5" d="M37.88,866.031l-1.894-1.422l-0.007-0.005c-0.607-0.477-1.036-0.866-1.036-1.529
		c0-0.727,0.526-1.231,1.135-1.816l0.049-0.047c2.085-1.58,4.658-3.57,4.658-7.764c0-2.805-1.241-4.658-2.424-6.012h1.351
		l6.28-3.436H32.094c-2.637,0-6.527,0.336-9.847,2.976l-0.013,0.026c-2.271,1.886-3.627,4.643-3.627,7.362
		c0,2.207,0.907,4.39,2.487,5.982c2.231,2.247,5.03,2.721,6.985,2.721c0.152,0,0.308-0.003,0.465-0.01
		c-0.079,0.309-0.13,0.658-0.13,1.075c0,1.138,0.378,2.01,0.842,2.728c-2.495,0.201-6.055,0.674-8.841,2.32
		c-4.096,2.35-4.415,5.819-4.415,6.826c0,3.979,3.718,7.994,12.026,7.994c9.54,0,14.532-5.185,14.532-10.307
		C42.557,869.823,40.179,867.895,37.88,866.031z M24.823,851.904c0-1.391,0.314-2.443,0.964-3.218
		c0.678-0.818,1.893-1.367,3.023-1.367c2.07,0,3.43,1.563,4.206,2.874c0.958,1.618,1.553,3.759,1.553,5.586
		c0,0.515,0,2.081-1.061,3.103c-0.724,0.696-1.948,1.182-2.977,1.182c-2.135,0-3.484-1.531-4.239-2.816
		C25.209,855.406,24.823,853.28,24.823,851.904z M37.436,875.655c0,2.858-2.626,4.633-6.852,4.633c-5.005,0-8.367-2.146-8.367-5.339
		c0-2.722,2.243-3.831,3.936-4.428c1.973-0.631,4.613-0.761,5.213-0.761c0.407,0,0.634,0,0.904,0.024
		C36.092,872.411,37.436,873.548,37.436,875.655z"/>
</g>
<g>
	<path fill="#959595" d="M27.882,918.903c-0.38-1.011-0.819-0.939-1.112-0.95s-0.549-0.005-0.944,0.001
		c-0.334,0.005-0.882,0.092-1.36,0.573c-0.478,0.48-1.818,1.635-1.911,4.083c-0.092,2.447,1.614,4.879,1.853,5.219
		c0.238,0.342,3.258,5.646,8.278,7.828c5.021,2.181,5.047,1.516,5.968,1.467c0.922-0.048,3.011-1.093,3.473-2.239
		c0.462-1.145,0.499-2.141,0.381-2.353s-0.446-0.349-0.938-0.616s-2.91-1.562-3.364-1.745c-0.454-0.182-0.785-0.277-1.138,0.208
		c-0.353,0.484-1.356,1.569-1.66,1.89c-0.305,0.321-0.599,0.351-1.092,0.083c-0.491-0.267-2.087-0.853-3.937-2.618
		c-1.44-1.373-2.385-3.04-2.659-3.548c-0.274-0.509-0.002-0.768,0.259-1.006c0.234-0.215,0.523-0.563,0.785-0.844
		c0.261-0.281,0.353-0.485,0.532-0.811c0.179-0.325,0.107-0.619-0.009-0.872C29.171,922.399,28.262,919.914,27.882,918.903z"/>
	<g>
		<path fill="#959595" d="M32.363,910.857c4.487,0,8.703,1.732,11.873,4.878c3.164,3.14,4.907,7.313,4.907,11.75
			s-1.743,8.61-4.907,11.75c-3.17,3.146-7.387,4.878-11.873,4.878c-2.84,0-5.646-0.716-8.117-2.072l-1.073-0.589l-1.166,0.37
			l-5.487,1.743l1.73-5.103l0.428-1.263l-0.694-1.14c-1.571-2.58-2.401-5.546-2.401-8.576c0-4.437,1.743-8.61,4.907-11.75
			C23.66,912.589,27.877,910.857,32.363,910.857 M32.363,908c-10.844,0-19.636,8.723-19.636,19.485c0,3.681,1.03,7.124,2.818,10.061
			L12,948l10.872-3.454c2.813,1.543,6.049,2.424,9.491,2.424c10.846,0,19.637-8.724,19.637-19.485C52,916.723,43.208,908,32.363,908
			L32.363,908z"/>
	</g>
</g>
<g>
	<path fill="#E5E5E5" d="M27.882,982.903c-0.38-1.011-0.819-0.939-1.112-0.95s-0.549-0.005-0.944,0.001
		c-0.334,0.005-0.882,0.092-1.36,0.573c-0.478,0.48-1.818,1.635-1.911,4.083c-0.092,2.447,1.614,4.879,1.853,5.219
		c0.238,0.342,3.258,5.646,8.278,7.828c5.021,2.181,5.047,1.516,5.968,1.467c0.922-0.048,3.011-1.093,3.473-2.239
		c0.462-1.145,0.499-2.141,0.381-2.353s-0.446-0.349-0.938-0.616s-2.91-1.562-3.364-1.745c-0.454-0.182-0.785-0.277-1.138,0.208
		c-0.353,0.484-1.356,1.569-1.66,1.89c-0.305,0.321-0.599,0.351-1.092,0.083c-0.491-0.267-2.087-0.853-3.937-2.618
		c-1.44-1.373-2.385-3.04-2.659-3.548c-0.274-0.509-0.002-0.768,0.259-1.006c0.234-0.215,0.523-0.563,0.785-0.844
		c0.261-0.281,0.353-0.485,0.532-0.811c0.179-0.325,0.107-0.619-0.009-0.872C29.171,986.399,28.262,983.914,27.882,982.903z"/>
	<g>
		<path fill="#E5E5E5" d="M32.363,974.857c4.487,0,8.703,1.732,11.873,4.878c3.164,3.14,4.907,7.313,4.907,11.75
			s-1.743,8.61-4.907,11.75c-3.17,3.146-7.387,4.878-11.873,4.878c-2.84,0-5.646-0.716-8.117-2.072l-1.073-0.589l-1.166,0.37
			l-5.487,1.743l1.73-5.103l0.428-1.263l-0.694-1.14c-1.571-2.58-2.401-5.546-2.401-8.576c0-4.437,1.743-8.61,4.907-11.75
			C23.66,976.589,27.877,974.857,32.363,974.857 M32.363,972c-10.844,0-19.636,8.723-19.636,19.485c0,3.681,1.03,7.124,2.818,10.061
			L12,1012l10.872-3.454c2.813,1.543,6.049,2.424,9.491,2.424c10.846,0,19.637-8.724,19.637-19.485
			C52,980.723,43.208,972,32.363,972L32.363,972z"/>
	</g>
</g>
<path fill="#D5D5D5" d="M23.819,1045.447l-5.467-5.485l5.479-5.414c0.225-0.225,0.225-0.591,0-0.816l-1.558-1.566
	c-0.108-0.108-0.254-0.167-0.408-0.167s-0.3,0.063-0.408,0.167l-5.454,5.397l-5.462-5.393c-0.108-0.108-0.254-0.167-0.408-0.167
	s-0.3,0.063-0.408,0.167l-1.554,1.566c-0.225,0.225-0.225,0.591,0,0.816l5.479,5.414l-5.462,5.48
	c-0.108,0.108-0.171,0.254-0.171,0.408c0,0.154,0.058,0.3,0.171,0.408l1.558,1.566c0.112,0.112,0.258,0.171,0.408,0.171
	c0.146,0,0.296-0.054,0.408-0.171l5.442-5.464l5.446,5.46c0.112,0.112,0.258,0.171,0.408,0.171c0.146,0,0.296-0.054,0.408-0.171
	l1.558-1.566c0.108-0.108,0.171-0.254,0.171-0.408C23.99,1045.701,23.927,1045.555,23.819,1045.447z"/>
<path fill="#F1F1F1" d="M55.819,1045.447l-5.467-5.485l5.479-5.414c0.225-0.225,0.225-0.591,0-0.816l-1.558-1.566
	c-0.108-0.108-0.254-0.167-0.408-0.167s-0.3,0.063-0.408,0.167l-5.454,5.397l-5.462-5.393c-0.108-0.108-0.254-0.167-0.408-0.167
	s-0.3,0.063-0.408,0.167l-1.554,1.566c-0.225,0.225-0.225,0.591,0,0.816l5.479,5.414l-5.462,5.48
	c-0.108,0.108-0.171,0.254-0.171,0.408c0,0.154,0.058,0.3,0.171,0.408l1.558,1.566c0.112,0.112,0.258,0.171,0.408,0.171
	c0.146,0,0.296-0.054,0.408-0.171l5.442-5.464l5.446,5.46c0.112,0.112,0.258,0.171,0.408,0.171c0.146,0,0.296-0.054,0.408-0.171
	l1.558-1.566c0.108-0.108,0.171-0.254,0.171-0.408C55.99,1045.701,55.927,1045.555,55.819,1045.447z"/>
<path fill="#F5F5F5" d="M8.902,1063.564l-3.076-3.085l3.082-3.045c0.127-0.127,0.127-0.332,0-0.459l-0.877-0.881
	c-0.061-0.061-0.143-0.094-0.23-0.094s-0.169,0.035-0.23,0.094l-3.068,3.036l-3.073-3.034c-0.061-0.061-0.143-0.094-0.23-0.094
	s-0.169,0.035-0.23,0.094l-0.874,0.881c-0.127,0.127-0.127,0.332,0,0.459l3.082,3.045l-3.073,3.083
	c-0.061,0.061-0.096,0.143-0.096,0.229s0.033,0.169,0.096,0.229l0.877,0.881c0.063,0.063,0.145,0.096,0.23,0.096
	c0.082,0,0.167-0.03,0.23-0.096l3.062-3.073l3.064,3.071c0.063,0.063,0.145,0.096,0.23,0.096c0.082,0,0.167-0.03,0.23-0.096
	l0.877-0.881c0.061-0.061,0.096-0.143,0.096-0.229C8.998,1063.707,8.963,1063.625,8.902,1063.564z"/>
<path fill="#333333" d="M40.898,1063.564l-3.076-3.085l3.082-3.045c0.127-0.127,0.127-0.332,0-0.459l-0.877-0.881
	c-0.061-0.061-0.143-0.094-0.23-0.094c-0.087,0-0.169,0.035-0.23,0.094l-3.068,3.036l-3.073-3.034
	c-0.061-0.061-0.143-0.094-0.23-0.094s-0.169,0.035-0.23,0.094l-0.874,0.881c-0.127,0.127-0.127,0.332,0,0.459l3.082,3.045
	l-3.073,3.083c-0.061,0.061-0.096,0.143-0.096,0.229s0.033,0.169,0.096,0.229l0.877,0.881c0.063,0.063,0.145,0.096,0.23,0.096
	c0.082,0,0.167-0.03,0.23-0.096l3.062-3.073l3.064,3.071c0.063,0.063,0.145,0.096,0.23,0.096c0.082,0,0.167-0.03,0.23-0.096
	l0.877-0.881c0.061-0.061,0.096-0.143,0.096-0.229C40.995,1063.707,40.959,1063.625,40.898,1063.564z"/>
<path fill="#F5F5F5" d="M5,1067.008L5,1067.008L5,1067.008l3.889,3.92c0.096,0.098,0.255,0.096,0.353-0.005l0.683-0.701
	c0.098-0.101,0.1-0.265,0.004-0.363l-4.749-4.788c-0.049-0.052-0.116-0.075-0.181-0.07c-0.067-0.002-0.132,0.021-0.181,0.07
	l-4.749,4.788c-0.096,0.098-0.094,0.263,0.004,0.363l0.683,0.701c0.098,0.101,0.257,0.103,0.353,0.005L5,1067.008z"/>
<path fill="#333333" d="M37,1067.008L37,1067.008L37,1067.008l3.889,3.92c0.096,0.098,0.255,0.096,0.353-0.005l0.683-0.701
	c0.098-0.101,0.1-0.265,0.004-0.363l-4.749-4.788c-0.049-0.052-0.116-0.075-0.181-0.07c-0.067-0.002-0.132,0.021-0.181,0.07
	l-4.749,4.788c-0.096,0.098-0.094,0.263,0.004,0.363l0.683,0.701c0.098,0.101,0.257,0.103,0.353,0.005L37,1067.008z"/>
<path fill="#959595" d="M24.656,1083.814c-0.864-0.848-2.015-1.314-3.243-1.314s-2.379,0.467-3.242,1.313l-1.686,1.639l1.08,1.068
	l1.674-1.634c0.58-0.567,1.35-0.879,2.168-0.879c0.818,0,1.588,0.312,2.167,0.878c0.576,0.566,0.893,1.318,0.892,2.119
	c-0.001,0.798-0.317,1.547-0.891,2.108c-0.58,0.567-1.35,0.879-2.168,0.879c-0.818,0-1.588-0.312-2.168-0.878l-5.411-5.3
	c-0.869-0.847-2.02-1.314-3.242-1.314c-1.227,0-2.379,0.467-3.243,1.314c-0.866,0.849-1.344,1.98-1.345,3.186
	c-0.001,1.204,0.477,2.335,1.344,3.186c0.864,0.848,2.015,1.314,3.243,1.314c1.227,0,2.379-0.467,3.242-1.314l1.681-1.64
	l-1.081-1.06l-1.674,1.628c-0.58,0.567-1.35,0.879-2.168,0.879s-1.588-0.312-2.167-0.878c-0.576-0.566-0.893-1.318-0.892-2.119
	c0.001-0.798,0.317-1.547,0.891-2.108c0.58-0.567,1.35-0.879,2.168-0.879s1.588,0.312,2.168,0.878l5.411,5.3
	c0.869,0.847,2.02,1.314,3.242,1.314c1.227,0,2.379-0.467,3.242-1.313c0.87-0.847,1.349-1.979,1.35-3.186
	C26.001,1085.796,25.523,1084.664,24.656,1083.814z"/>
<path fill="#D5D5D5" d="M56.656,1083.814c-0.864-0.848-2.015-1.314-3.243-1.314c-1.227,0-2.379,0.467-3.242,1.313l-1.686,1.639
	l1.08,1.068l1.674-1.634c0.58-0.567,1.35-0.879,2.168-0.879s1.588,0.312,2.167,0.878c0.576,0.566,0.893,1.318,0.892,2.119
	c-0.001,0.798-0.317,1.547-0.891,2.108c-0.58,0.567-1.35,0.879-2.168,0.879s-1.588-0.312-2.168-0.878l-5.411-5.3
	c-0.869-0.847-2.02-1.314-3.242-1.314c-1.227,0-2.379,0.467-3.243,1.314c-0.866,0.849-1.344,1.98-1.345,3.186
	c-0.001,1.204,0.477,2.335,1.344,3.186c0.864,0.848,2.015,1.314,3.243,1.314c1.227,0,2.379-0.467,3.242-1.314l1.681-1.64
	l-1.081-1.06l-1.674,1.628c-0.58,0.567-1.35,0.879-2.168,0.879s-1.588-0.312-2.167-0.878c-0.576-0.566-0.893-1.318-0.892-2.119
	c0.001-0.798,0.317-1.547,0.891-2.108c0.58-0.567,1.35-0.879,2.168-0.879s1.588,0.312,2.168,0.878l5.411,5.3
	c0.869,0.847,2.02,1.314,3.242,1.314c1.227,0,2.379-0.467,3.242-1.313c0.87-0.847,1.349-1.979,1.35-3.186
	C58.001,1085.796,57.523,1084.664,56.656,1083.814z"/>
<path fill="#959595" d="M7,432.643l5.143,1.929L12.786,441L16,436.5l4.5,4.5l4.5-18L7,432.643z M19.805,438.485L16,434.571
	l5.143-7.071l-7.714,6.179l-3.319-1.246l12.938-6.931L19.805,438.485z"/>
<path fill="#D5D5D5" d="M39,432.643l5.143,1.929L44.786,441L48,436.5l4.5,4.5l4.5-18L39,432.643z M51.805,438.485L48,434.571
	l5.143-7.071l-7.714,6.179l-3.319-1.246l12.938-6.931L51.805,438.485z"/>
<g>
	<path fill="#959595" d="M19.929,496l-3.768,3.009C16.107,499.005,16.054,499,16,499c-0.79,0-1.429,0.67-1.429,1.5S15.21,502,16,502
		c0.79,0,1.429-0.67,1.429-1.5c0-0.056-0.004-0.113-0.009-0.169l2.866-3.956L19.929,496z"/>
	<path fill="#959595" d="M16,488.5c-5.522,0-10,4.702-10,10.5c0,1.613,0.348,3.136,0.964,4.5h1.612
		c-0.688-1.247-1.08-2.653-1.138-4.125h1.42v-0.75h-1.42c0.054-1.35,0.388-2.648,0.973-3.816l1.228,0.745l0.357-0.652l-1.228-0.741
		c0.33-0.544,0.723-1.059,1.17-1.528c0.455-0.474,0.951-0.891,1.478-1.242l0.705,1.28l0.621-0.375l-0.705-1.28
		c1.107-0.609,2.33-0.952,3.607-1.008v1.491h0.714v-1.491c1.277,0.056,2.5,0.403,3.607,1.008l-0.701,1.28l0.621,0.375l0.705-1.28
		c0.527,0.352,1.022,0.769,1.478,1.242c0.446,0.469,0.835,0.98,1.17,1.528l-1.223,0.741l0.357,0.652l1.228-0.745
		c0.585,1.167,0.92,2.466,0.973,3.816h-1.429v0.75h1.42c-0.058,1.472-0.451,2.878-1.138,4.125h1.612
		c0.616-1.364,0.964-2.887,0.964-4.5C26,493.202,21.522,488.5,16,488.5z"/>
</g>
<g>
	<path fill="#D5D5D5" d="M51.929,496l-3.768,3.009C48.107,499.005,48.054,499,48,499c-0.79,0-1.429,0.67-1.429,1.5S47.21,502,48,502
		s1.429-0.67,1.429-1.5c0-0.056-0.004-0.113-0.009-0.169l2.866-3.956L51.929,496z"/>
	<path fill="#D5D5D5" d="M48,488.5c-5.522,0-10,4.702-10,10.5c0,1.613,0.348,3.136,0.964,4.5h1.612
		c-0.688-1.247-1.08-2.653-1.138-4.125h1.42v-0.75h-1.42c0.054-1.35,0.388-2.648,0.973-3.816l1.228,0.745l0.357-0.652l-1.228-0.741
		c0.33-0.544,0.723-1.059,1.17-1.528c0.455-0.474,0.951-0.891,1.478-1.242l0.705,1.28l0.621-0.375l-0.705-1.28
		c1.107-0.609,2.33-0.952,3.607-1.008v1.491h0.714v-1.491c1.277,0.056,2.5,0.403,3.607,1.008l-0.701,1.28l0.621,0.375l0.705-1.28
		c0.527,0.352,1.022,0.769,1.478,1.242c0.446,0.469,0.835,0.98,1.17,1.528l-1.223,0.741l0.357,0.652l1.228-0.745
		c0.585,1.167,0.92,2.466,0.973,3.816h-1.429v0.75h1.42c-0.058,1.472-0.451,2.878-1.138,4.125h1.612
		c0.616-1.364,0.964-2.887,0.964-4.5C58,493.202,53.522,488.5,48,488.5z"/>
</g>
<g>
	<path fill="#959595" d="M16,456c-3.3,0-6,2.52-6,5.6c0,4.2,6,10.4,6,10.4s6-6.2,6-10.4C22,458.52,19.3,456,16,456z M16,463.6
		c-1.2,0-2.143-0.88-2.143-2s0.943-2,2.143-2s2.143,0.88,2.143,2S17.2,463.6,16,463.6z"/>
</g>
<g>
	<path fill="#D5D5D5" d="M48,456c-3.3,0-6,2.52-6,5.6c0,4.2,6,10.4,6,10.4s6-6.2,6-10.4C54,458.52,51.3,456,48,456z M48,463.6
		c-1.2,0-2.143-0.88-2.143-2s0.943-2,2.143-2s2.143,0.88,2.143,2S49.2,463.6,48,463.6z"/>
</g>
<path fill="#FFCC33" d="M54.38,1196.111l-41.76-20.712c-0.51-0.249-1.035-0.399-1.635-0.399c-1.635,0-2.97,1.125-2.97,2.499H8
	v42.999h0.015c0,1.377,1.335,2.502,2.97,2.502c0.615,0,1.125-0.174,1.68-0.426l41.715-20.688c0.99-0.687,1.62-1.725,1.62-2.886
	S55.37,1196.813,54.38,1196.111z"/>
<path fill="#F5F5F5" d="M54.38,1132.111l-41.76-20.712c-0.51-0.249-1.035-0.399-1.635-0.399c-1.635,0-2.97,1.125-2.97,2.499H8
	v42.999h0.015c0,1.377,1.335,2.502,2.97,2.502c0.615,0,1.125-0.174,1.68-0.426l41.715-20.688c0.99-0.687,1.62-1.725,1.62-2.886
	S55.37,1132.813,54.38,1132.111z"/>
<path fill="#FFCC33" d="M45.714,1337.8L56,1325.212h-6.931c-0.247-3.139-1.126-6.074-2.518-8.695
	c-2.935-5.534-8.122-9.574-14.251-10.755c-0.074-0.012-0.161-0.034-0.235-0.046c-0.053-0.012-0.096-0.022-0.151-0.022
	c-1.082-0.194-2.206-0.295-3.343-0.295c-0.01,0-0.031,0-0.043,0l0,0c-9.739,0.022-17.892,7.154-20.004,16.718v0.012
	c-0.031,0.125-0.053,0.247-0.074,0.372c-0.01,0.055-0.022,0.101-0.031,0.158c-0.01,0.079-0.031,0.158-0.043,0.235
	c-0.022,0.101-0.031,0.192-0.053,0.293c-0.01,0.046-0.01,0.079-0.022,0.125c-0.022,0.134-0.043,0.269-0.065,0.406
	c0,0.012,0,0.012,0,0.022c-0.108,0.708-0.17,1.428-0.204,2.148c0,0.034,0,0.067,0,0.089c-0.01,0.158-0.01,0.305-0.022,0.461
	c0,0.18-0.01,0.37-0.01,0.562s0,0.372,0.01,0.562c0,0.158,0.01,0.305,0.022,0.461c0,0.034,0,0.067,0,0.101
	c0.031,0.732,0.108,1.452,0.204,2.148c0,0.012,0,0.012,0,0.022c0.022,0.134,0.043,0.271,0.065,0.406
	c0.01,0.046,0.01,0.079,0.022,0.125c0.022,0.101,0.031,0.202,0.053,0.293c0.01,0.079,0.031,0.158,0.043,0.235
	c0.01,0.055,0.022,0.113,0.031,0.158c0.022,0.125,0.053,0.247,0.074,0.36v0.012c2.11,9.562,10.296,16.694,20.047,16.718
	c4.596-0.012,8.904-1.598,12.526-4.579l0.804-0.665l-4.63-5.198l-0.665,0.518c-2.366,1.836-5.088,2.724-8.035,2.724
	c-7.565,0-13.714-6.413-13.714-14.4s6.151-14.4,13.714-14.4c7.114,0,13.157,5.242,13.874,12.6H34.57L45.714,1337.8z"/>
<path fill="#F5F5F5" d="M45.714,1273.8L56,1261.212h-6.931c-0.247-3.139-1.126-6.074-2.518-8.695
	c-2.935-5.534-8.122-9.574-14.251-10.755c-0.074-0.012-0.161-0.034-0.235-0.046c-0.053-0.012-0.096-0.022-0.151-0.022
	c-1.082-0.194-2.206-0.295-3.343-0.295c-0.01,0-0.031,0-0.043,0l0,0c-9.739,0.022-17.892,7.154-20.004,16.718v0.012
	c-0.031,0.125-0.053,0.247-0.074,0.372c-0.01,0.055-0.022,0.101-0.031,0.158c-0.01,0.079-0.031,0.158-0.043,0.235
	c-0.022,0.101-0.031,0.192-0.053,0.293c-0.01,0.046-0.01,0.079-0.022,0.125c-0.022,0.134-0.043,0.269-0.065,0.406
	c0,0.012,0,0.012,0,0.022c-0.108,0.708-0.17,1.428-0.204,2.148c0,0.034,0,0.067,0,0.089c-0.01,0.158-0.01,0.305-0.022,0.461
	c0,0.18-0.01,0.37-0.01,0.562s0,0.372,0.01,0.562c0,0.158,0.01,0.305,0.022,0.461c0,0.034,0,0.067,0,0.101
	c0.031,0.732,0.108,1.452,0.204,2.148c0,0.012,0,0.012,0,0.022c0.022,0.134,0.043,0.271,0.065,0.406
	c0.01,0.046,0.01,0.079,0.022,0.125c0.022,0.101,0.031,0.202,0.053,0.293c0.01,0.079,0.031,0.158,0.043,0.235
	c0.01,0.055,0.022,0.113,0.031,0.158c0.022,0.125,0.053,0.247,0.074,0.36v0.012c2.11,9.562,10.296,16.694,20.047,16.718
	c4.596-0.012,8.904-1.598,12.526-4.579l0.804-0.665l-4.63-5.198l-0.665,0.518c-2.366,1.836-5.088,2.724-8.035,2.724
	c-7.565,0-13.714-6.413-13.714-14.4s6.151-14.4,13.714-14.4c7.114,0,13.157,5.242,13.874,12.6H34.57L45.714,1273.8z"/>
</svg>
